<svg width="513" height="386" viewBox="0 0 513 386" fill="none" xmlns="http://www.w3.org/2000/svg">
<path d="M135.515 385.894C115.151 385.894 102.932 376.569 96.6379 355.768L2.59182 43.0365C0.74052 36.9396 0 31.5601 0 26.8978C0 10.4005 12.2186 0 31.4721 0C47.3933 0 55.9093 7.17275 60.7227 25.4632L136.626 309.863H138.107L218.824 27.9737C224.007 9.68321 236.967 0 256.59 0C275.844 0 288.062 9.32457 293.246 27.6151L374.703 309.863H376.184L452.088 25.4632C456.901 7.17275 465.417 0 481.338 0C500.592 0 512.81 10.4005 512.81 26.8978C512.81 31.5601 512.07 36.9396 510.219 43.0365L416.172 355.768C410.248 375.852 396.919 385.894 376.925 385.894C355.45 385.894 343.231 376.928 336.937 355.768L256.961 90.7352H255.48L175.874 355.768C169.949 375.493 155.88 385.894 135.515 385.894Z" fill="black"/>
</svg>
